<?xml version="1.0" encoding="utf-8"?>
<!-- Generator: Adobe Illustrator 24.0.0, SVG Export Plug-In . SVG Version: 6.00 Build 0)  -->
<svg version="1.1" id="Layer_1" xmlns="http://www.w3.org/2000/svg" xmlns:xlink="http://www.w3.org/1999/xlink" x="0px" y="0px"
	 viewBox="0 0 33.3 36.2" style="enable-background:new 0 0 33.3 36.2;" xml:space="preserve">
<style type="text/css">
	.st0{fill:#FC2937;}
	.st1{fill:#FFFFFF;}
</style>
<g>
	<g>
		<path class="st0" d="M33.3,33.8c0,1.4-1.1,2.4-2.4,2.4c-1.4,0-2.4-1.1-2.4-2.4c0-1.4,1.1-2.4,2.4-2.4
			C32.2,31.3,33.3,32.4,33.3,33.8z"/>
	</g>
	<g>
		<path class="st1" d="M4,5.4V3.5V2.3C4,2.2,4,2.1,4,2c0-1.1-0.9-2-2-2C1.2,0,0.5,0.5,0.2,1.2C0.7,3.2,2.1,4.8,4,5.4z"/>
		<path class="st1" d="M6.2,12.1H10c0,0,0,0,0,0h0.1v0c3.3,0,6,2.7,6,6c0,3.3-2.6,6-5.9,6c-0.1,0-0.1,0-0.2,0c-1.1,0-2,0.9-2,2
			c0,1.1,0.9,2,2,2c0.1,0,0.2,0,0.3,0c5.4-0.1,9.8-4.6,9.8-10.1C20.1,12.6,15.6,8,10.1,8c-0.2,0-0.3,0-0.5,0H5.9C5.8,8,5.7,8,5.6,8
			C3,7.8,0.9,6.1,0,3.8v2.3C0.1,9.4,2.9,12.1,6.2,12.1z"/>
		<path class="st1" d="M5.7,20.1C5.8,20.1,5.8,20.1,5.7,20.1l4,0c0.1,0,0.2,0,0.3,0c1.1,0,2-0.9,2-2c0-1.1-0.9-2-2-2H10c0,0,0,0,0,0
			H6.2c-3.4,0-6.1,2.7-6.2,6v2.3C0.9,22,3.1,20.2,5.7,20.1z"/>
		<path class="st1" d="M27.2,12.3c-0.1-0.3-0.2-0.6-0.3-0.8c-0.3-0.7-0.6-1.4-0.9-2c-0.2-0.4-0.4-0.8-0.7-1.1
			c-0.1-0.1-0.2-0.2-0.2-0.4c-0.3-0.5-0.7-0.9-1-1.4c-0.1-0.1-0.2-0.2-0.3-0.3C20.4,2.4,15.5,0,10.1,0C9,0,8,0.9,8,2
			c0,0.1,0,0.1,0,0.2c0.1,1,1,1.8,2,1.8c0.1,0,0.2,0,0.3,0c4,0.1,7.7,1.9,10.2,4.7c0,0,0,0,0.1,0.1C20.7,8.9,20.8,9,21,9.2
			c0.1,0.1,0.2,0.3,0.3,0.4c0.1,0.1,0.2,0.2,0.2,0.3c0.4,0.5,0.7,1,1,1.6c0.1,0.1,0.1,0.2,0.2,0.3c0.1,0.2,0.2,0.4,0.3,0.6
			c0.1,0.2,0.2,0.4,0.3,0.6c0.6,1.6,1,3.3,1,5.1c0,0.1,0,0.3,0,0.4c0,0,0,0.1,0,0.1c0,0.1,0,0.2,0,0.3c0,0,0,0.1,0,0.1
			c0,0.1,0,0.2,0,0.3c0,0,0,0.1,0,0.1c0,0.1,0,0.2,0,0.3c0,0,0,0.1,0,0.1c0,0.1,0,0.3-0.1,0.4c0,0,0,0.1,0,0.1c0,0.1,0,0.2-0.1,0.3
			c0,0,0,0.1,0,0.1c0,0.1,0,0.2-0.1,0.3c0,0.1,0,0.1,0,0.2c0,0.1,0,0.2-0.1,0.2c0,0,0,0.1,0,0.1c0,0.1,0,0.2-0.1,0.3
			c0,0,0,0.1,0,0.1c0,0.1-0.1,0.2-0.1,0.4c0,0,0,0.1,0,0.1c0,0.1-0.1,0.2-0.1,0.3c0,0,0,0.1-0.1,0.1c0,0.1-0.1,0.1-0.1,0.2
			c0,0.1,0,0.1-0.1,0.2c0,0.1-0.1,0.1-0.1,0.2c0,0,0,0.1-0.1,0.1c0,0.1-0.1,0.2-0.1,0.3c0,0,0,0.1,0,0.1c-0.1,0.1-0.1,0.2-0.2,0.3
			c0,0,0,0.1-0.1,0.1c0,0.1-0.1,0.1-0.1,0.2c0,0.1-0.1,0.1-0.1,0.1c0,0.1-0.1,0.1-0.1,0.2c0,0-0.1,0.1-0.1,0.1
			c0,0.1-0.1,0.1-0.1,0.2c0,0-0.1,0.1-0.1,0.1c-0.1,0.1-0.1,0.2-0.2,0.3c0,0-0.1,0.1-0.1,0.1c0,0.1-0.1,0.1-0.1,0.2
			c0,0-0.1,0.1-0.1,0.1c0,0.1-0.1,0.1-0.1,0.2c0,0-0.1,0.1-0.1,0.1c0,0.1-0.1,0.1-0.1,0.2c0,0-0.1,0.1-0.1,0.1
			c0,0.1-0.1,0.1-0.1,0.2c0,0-0.1,0.1-0.1,0.1c-0.1,0.1-0.2,0.2-0.2,0.3c0,0-0.1,0.1-0.1,0.1c-0.1,0.1-0.1,0.1-0.2,0.2
			c0,0-0.1,0.1-0.1,0.1c0,0.1-0.1,0.1-0.1,0.2c0,0-0.1,0.1-0.1,0.1c-0.6,0.6-1.2,1.1-1.9,1.5l0,0c-2.3,1.6-5.1,2.5-8,2.5
			c-0.2,0-0.4,0-0.6,0H7c-1.6-0.1-2.8-1.3-3-2.8v-6.5c-2.3,1.1-3.9,3.3-4,5.9v0.9c0.2,3.5,3,6.3,6.5,6.6H10c0,0,0,0,0,0h0.1v0
			c5.6,0,10.6-2.5,13.9-6.5h0c0.4-0.5,0.8-1,1.1-1.5h0c0,0,0-0.1,0.1-0.1c0.1-0.1,0.2-0.2,0.2-0.4c0-0.1,0.1-0.1,0.1-0.2
			c0.1-0.1,0.2-0.3,0.2-0.4c0-0.1,0.1-0.1,0.1-0.2c0.1-0.1,0.1-0.2,0.2-0.3c0-0.1,0.1-0.1,0.1-0.2c0.1-0.1,0.1-0.3,0.2-0.4
			c0-0.1,0.1-0.1,0.1-0.2c0.1-0.2,0.1-0.3,0.2-0.5c0-0.1,0-0.1,0.1-0.2c0.1-0.1,0.1-0.3,0.2-0.5c0,0,0-0.1,0.1-0.1
			c0.1-0.1,0.1-0.3,0.2-0.5c0,0,0-0.1,0.1-0.1c0.1-0.2,0.1-0.3,0.2-0.5c0,0,0-0.1,0-0.1c0.1-0.2,0.1-0.4,0.2-0.5c0,0,0-0.1,0-0.1
			c0-0.2,0.1-0.3,0.1-0.5c0,0,0-0.1,0-0.1c0-0.2,0.1-0.4,0.1-0.6c0,0,0-0.1,0-0.1c0-0.2,0.1-0.4,0.1-0.6c0,0,0-0.1,0-0.1
			c0-0.2,0.1-0.4,0.1-0.6c0,0,0,0,0-0.1c0-0.2,0-0.4,0.1-0.6c0,0,0-0.1,0-0.1c0-0.2,0-0.4,0-0.6c0,0,0-0.1,0-0.1c0-0.2,0-0.4,0-0.6
			C28.2,16.1,27.8,14.1,27.2,12.3z"/>
	</g>
</g>
</svg>
