<?xml version="1.0" encoding="utf-8"?>
<!-- Generator: Adobe Illustrator 24.0.0, SVG Export Plug-In . SVG Version: 6.00 Build 0)  -->
<svg version="1.1" id="Layer_1" xmlns="http://www.w3.org/2000/svg" xmlns:xlink="http://www.w3.org/1999/xlink" x="0px" y="0px"
	 viewBox="0 0 142.7 60.7" style="enable-background:new 0 0 142.7 60.7;" xml:space="preserve">
<style type="text/css">
	.st0{fill:#FC2937;}
	.st1{fill:#FFFFFF;}
</style>
<g>
	<g>
		<circle class="st0" cx="128.8" cy="44.8" r="3.5"/>
	</g>
	<g>
		<path class="st1" d="M10.3,12.3V9.6V7.9c0-0.1,0-0.3,0-0.4c0-1.6-1.3-2.9-2.9-2.9c-1.2,0-2.2,0.7-2.6,1.7
			C5.5,9.1,7.6,11.3,10.3,12.3z"/>
		<path class="st1" d="M13.5,21.7h5.3c0,0,0,0,0,0h0.1v0c4.7,0,8.6,3.9,8.6,8.6c0,4.7-3.7,8.5-8.4,8.6c-0.1,0-0.1,0-0.2,0
			c-1.6,0-2.9,1.3-2.9,2.9c0,1.6,1.3,2.9,2.9,2.9c0.1,0,0.2,0,0.4,0c7.7-0.2,14-6.5,14-14.3c0-7.9-6.4-14.3-14.3-14.3
			c-0.2,0-0.4,0-0.7,0h-5.3c-0.1,0-0.2,0-0.4-0.1c-3.7-0.2-6.8-2.7-8-6v3.2C4.8,17.9,8.7,21.7,13.5,21.7z"/>
		<path class="st1" d="M12.7,33.2c0,0,0.1,0,0.1,0h5.6c0.1,0,0.3,0,0.4,0c1.6,0,2.9-1.3,2.9-2.9s-1.3-2.9-2.9-2.9h-0.1c0,0,0,0,0,0
			h-5.3c-4.8,0-8.7,3.8-8.9,8.5v3.2C5.8,35.8,9,33.4,12.7,33.2z"/>
		<path class="st1" d="M43.3,22.1c-0.1-0.4-0.3-0.8-0.4-1.2c-0.4-1-0.8-1.9-1.3-2.8c-0.3-0.5-0.6-1.1-1-1.6
			c-0.1-0.2-0.2-0.3-0.3-0.5c-0.5-0.7-1-1.3-1.5-2c-0.1-0.2-0.3-0.3-0.4-0.5C33.6,8,26.7,4.6,18.9,4.6c-1.6,0-2.9,1.3-2.9,2.9
			c0,0.1,0,0.2,0,0.3c0.1,1.4,1.4,2.6,2.9,2.6c0.1,0,0.3,0,0.4,0c5.8,0.1,10.9,2.7,14.5,6.7c0,0,0.1,0.1,0.1,0.1
			c0.2,0.2,0.3,0.4,0.5,0.6c0.1,0.2,0.3,0.4,0.4,0.5c0.1,0.1,0.2,0.3,0.3,0.4c0.5,0.7,1,1.5,1.4,2.3c0.1,0.1,0.1,0.3,0.2,0.4
			c0.1,0.3,0.3,0.6,0.4,0.9c0.1,0.3,0.3,0.6,0.4,0.9c0.9,2.3,1.4,4.7,1.4,7.3c0,0.2,0,0.4,0,0.6c0,0.1,0,0.1,0,0.2
			c0,0.1,0,0.3,0,0.4c0,0.1,0,0.1,0,0.2c0,0.1,0,0.3,0,0.4c0,0.1,0,0.1,0,0.2c0,0.1,0,0.3,0,0.4c0,0.1,0,0.1,0,0.2
			c0,0.2,0,0.4-0.1,0.6c0,0,0,0.1,0,0.1c0,0.1,0,0.3-0.1,0.4c0,0.1,0,0.1,0,0.2c0,0.1,0,0.2-0.1,0.4c0,0.1,0,0.1,0,0.2
			c0,0.1-0.1,0.2-0.1,0.3c0,0.1,0,0.1,0,0.2c0,0.1-0.1,0.3-0.1,0.4c0,0,0,0.1,0,0.2c-0.1,0.2-0.1,0.4-0.2,0.5c0,0.1,0,0.1-0.1,0.2
			c0,0.1-0.1,0.2-0.1,0.4c0,0.1-0.1,0.1-0.1,0.2c0,0.1-0.1,0.2-0.1,0.3c0,0.1-0.1,0.1-0.1,0.2c0,0.1-0.1,0.2-0.1,0.3
			c0,0.1-0.1,0.1-0.1,0.2c-0.1,0.1-0.1,0.2-0.2,0.4c0,0,0,0.1-0.1,0.1C37,38.9,37,39,36.9,39.2c0,0.1-0.1,0.1-0.1,0.2
			c-0.1,0.1-0.1,0.2-0.2,0.3c0,0.1-0.1,0.1-0.1,0.2c0,0.1-0.1,0.2-0.2,0.3c0,0.1-0.1,0.1-0.1,0.2c-0.1,0.1-0.1,0.2-0.2,0.3
			c0,0.1-0.1,0.1-0.1,0.2c-0.1,0.1-0.2,0.3-0.2,0.4c0,0.1-0.1,0.1-0.1,0.2c-0.1,0.1-0.1,0.2-0.2,0.3c0,0.1-0.1,0.1-0.1,0.2
			c-0.1,0.1-0.1,0.2-0.2,0.2c0,0.1-0.1,0.1-0.2,0.2c-0.1,0.1-0.1,0.2-0.2,0.2c-0.1,0.1-0.1,0.1-0.2,0.2c-0.1,0.1-0.1,0.2-0.2,0.3
			c0,0.1-0.1,0.1-0.1,0.2c-0.1,0.1-0.2,0.3-0.3,0.4c0,0.1-0.1,0.1-0.1,0.2c-0.1,0.1-0.1,0.2-0.2,0.2c-0.1,0.1-0.1,0.1-0.2,0.2
			c-0.1,0.1-0.1,0.1-0.2,0.2c-0.1,0.1-0.1,0.1-0.2,0.2c-0.8,0.8-1.7,1.5-2.6,2.2l0,0c-3.2,2.3-7.2,3.6-11.4,3.6c-0.3,0-0.6,0-0.8,0
			h-3.5c-2.2-0.1-4-1.9-4.3-4.1v-9.2c-3.2,1.5-5.5,4.7-5.7,8.4v1.2c0.3,5,4.3,9,9.3,9.4h4.9c0,0,0,0,0,0h0.2v0
			c8,0,15.1-3.6,19.8-9.3h0c0.6-0.7,1.1-1.4,1.6-2.1h0c0,0,0.1-0.1,0.1-0.1c0.1-0.2,0.2-0.3,0.3-0.5c0.1-0.1,0.1-0.2,0.2-0.3
			c0.1-0.2,0.2-0.4,0.3-0.6c0-0.1,0.1-0.2,0.1-0.3c0.1-0.2,0.2-0.3,0.3-0.5c0-0.1,0.1-0.2,0.1-0.3c0.1-0.2,0.2-0.4,0.3-0.6
			c0-0.1,0.1-0.2,0.1-0.2c0.1-0.2,0.2-0.4,0.3-0.7c0-0.1,0.1-0.2,0.1-0.2c0.1-0.2,0.2-0.4,0.3-0.6c0-0.1,0-0.1,0.1-0.2
			c0.1-0.2,0.2-0.4,0.2-0.6c0-0.1,0.1-0.1,0.1-0.2c0.1-0.2,0.2-0.5,0.2-0.7c0-0.1,0-0.1,0.1-0.2c0.1-0.3,0.2-0.5,0.2-0.8
			c0,0,0-0.1,0-0.1c0.1-0.2,0.1-0.5,0.2-0.7c0,0,0-0.1,0-0.1c0.1-0.3,0.1-0.5,0.2-0.8c0-0.1,0-0.1,0-0.2c0-0.3,0.1-0.5,0.1-0.8
			c0,0,0-0.1,0-0.1c0-0.3,0.1-0.5,0.1-0.8c0,0,0-0.1,0-0.1c0-0.3,0.1-0.6,0.1-0.9c0-0.1,0-0.1,0-0.2c0-0.3,0-0.6,0-0.8
			c0-0.1,0-0.1,0-0.2c0-0.3,0-0.6,0-0.9C44.7,27.4,44.2,24.7,43.3,22.1z"/>
	</g>
	<path class="st1" d="M64.2,29.6c0.8,0,1.5-0.2,2.2-0.5c0.4-0.2,0.8-0.4,1.1-0.7v0.6c0,0.1,0.1,0.3,0.3,0.3h3.6
		c0.2,0,0.3-0.1,0.3-0.3V11.9c0-0.1-0.1-0.3-0.3-0.3h-3.6c-0.2,0-0.3,0.1-0.3,0.3V19c-0.3-0.3-0.7-0.5-1.1-0.7
		c-0.7-0.3-1.4-0.5-2.2-0.5c-1.6,0-2.9,0.6-4,1.7c-1.1,1.1-1.6,2.6-1.6,4.2c0,1.7,0.5,3.1,1.6,4.2C61.3,29.1,62.6,29.6,64.2,29.6z
		 M62.9,23.7c0-0.6,0.2-1.2,0.7-1.6c0.4-0.4,1-0.7,1.6-0.7c0.6,0,1.2,0.2,1.6,0.7c0.4,0.4,0.7,1,0.7,1.6c0,0.6-0.2,1.2-0.7,1.6
		c-0.4,0.4-1,0.7-1.6,0.7s-1.2-0.2-1.6-0.7C63.1,24.9,62.9,24.4,62.9,23.7z M79.1,18.1c0.2,0,0.3,0.1,0.3,0.3v10.8
		c0,0.1-0.1,0.3-0.3,0.3h-3.6c-0.2,0-0.3-0.1-0.3-0.3V18.3c0-0.1,0.1-0.3,0.3-0.3H79.1z M75.6,15.9c-0.5-0.5-0.7-1-0.7-1.7
		c0-0.7,0.2-1.2,0.7-1.7c0.5-0.5,1-0.7,1.7-0.7c0.7,0,1.2,0.2,1.7,0.7c0.5,0.5,0.7,1,0.7,1.7c0,0.7-0.2,1.2-0.7,1.7
		c-0.5,0.5-1,0.7-1.7,0.7C76.6,16.6,76,16.4,75.6,15.9z M93.6,34.1c1.2-1.2,1.8-3,1.8-5.3V18.3c0-0.1-0.1-0.3-0.3-0.3h-3.6
		c-0.2,0-0.3,0.1-0.3,0.3V19c-0.3-0.3-0.7-0.5-1.1-0.7c-0.7-0.3-1.4-0.5-2.2-0.5c-1.6,0-2.9,0.6-4,1.7c-1.1,1.1-1.6,2.6-1.6,4.2
		c0,1.7,0.5,3.1,1.6,4.2c1.1,1.1,2.4,1.7,4,1.7c0.8,0,1.5-0.2,2.2-0.5c0.4-0.2,0.8-0.4,1.1-0.7V29c0,2.1-0.8,3.1-2.5,3.1
		c-1.1,0-1.9-0.4-2.6-1.3c0-0.1-0.1-0.1-0.2-0.1c0,0,0,0,0,0c-0.1,0-0.1,0-0.2,0.1l-2.4,2.1c-0.1,0.1-0.1,0.3,0,0.4
		c0.7,0.8,1.5,1.4,2.5,1.9c1,0.4,2,0.7,3.1,0.7C90.8,35.8,92.4,35.3,93.6,34.1z M91.1,23.7c0,0.6-0.2,1.2-0.7,1.6
		c-0.4,0.4-1,0.7-1.6,0.7c-0.6,0-1.2-0.2-1.6-0.7c-0.4-0.4-0.7-1-0.7-1.6s0.2-1.2,0.7-1.6c0.4-0.4,1-0.7,1.6-0.7
		c0.6,0,1.2,0.2,1.6,0.7C90.8,22.6,91.1,23.1,91.1,23.7z M102.7,29.4h-3.6c-0.1,0-0.3-0.1-0.3-0.3V18.3c0-0.1,0.1-0.3,0.3-0.3h3.6
		c0.1,0,0.3,0.1,0.3,0.3v10.8C103,29.2,102.9,29.4,102.7,29.4z M99.2,15.9c-0.5-0.5-0.7-1-0.7-1.7c0-0.7,0.2-1.2,0.7-1.7
		c0.5-0.5,1-0.7,1.7-0.7c0.7,0,1.2,0.2,1.7,0.7c0.5,0.5,0.7,1,0.7,1.7c0,0.7-0.2,1.2-0.7,1.7c-0.5,0.5-1,0.7-1.7,0.7
		C100.3,16.6,99.7,16.4,99.2,15.9z M105.7,21.2v-2.9c0-0.1,0.1-0.3,0.3-0.3h1.4v-2.8c0-0.2,0.1-0.3,0.3-0.3h3.6
		c0.2,0,0.3,0.1,0.3,0.3v2.8h2.1c0.2,0,0.3,0.1,0.3,0.3v2.9c0,0.2-0.1,0.3-0.3,0.3h-2.1v7.6c0,0.1-0.1,0.3-0.3,0.3h-3.6
		c-0.2,0-0.3-0.1-0.3-0.3v-7.6H106C105.9,21.5,105.7,21.4,105.7,21.2z M128.7,18.1h-3.6c-0.2,0-0.3,0.1-0.3,0.3V19
		c-0.3-0.3-0.7-0.5-1.1-0.7c-0.7-0.3-1.4-0.5-2.2-0.5c-1.6,0-2.9,0.6-4,1.7c-1.1,1.1-1.6,2.6-1.6,4.2c0,1.7,0.5,3.1,1.6,4.2
		c1.1,1.1,2.4,1.7,4,1.7c0.8,0,1.5-0.2,2.2-0.5c0.4-0.2,0.8-0.4,1.1-0.7v0.6c0,0.1,0.1,0.3,0.3,0.3h3.6c0.1,0,0.3-0.1,0.3-0.3V18.3
		C129,18.2,128.8,18.1,128.7,18.1z M124.6,23.7c0,0.6-0.2,1.2-0.7,1.6c-0.4,0.4-1,0.7-1.6,0.7s-1.2-0.2-1.6-0.7
		c-0.4-0.4-0.7-1-0.7-1.6s0.2-1.2,0.7-1.6c0.4-0.4,1-0.7,1.6-0.7s1.2,0.2,1.6,0.7C124.4,22.6,124.6,23.1,124.6,23.7z M136.6,11.9
		v17.2c0,0.1-0.1,0.3-0.3,0.3h-3.6c-0.1,0-0.3-0.1-0.3-0.3V11.9c0-0.1,0.1-0.3,0.3-0.3h3.6C136.4,11.6,136.6,11.7,136.6,11.9z
		 M66.6,36.8c-0.8,0-1.5,0.2-2.2,0.5c-0.4,0.2-0.8,0.4-1.1,0.7v-7.1c0-0.1-0.1-0.3-0.3-0.3h-3.6c-0.2,0-0.3,0.1-0.3,0.3v17.2
		c0,0.2,0.1,0.3,0.3,0.3H63c0.2,0,0.3-0.1,0.3-0.3v-0.6c0.3,0.3,0.7,0.5,1.1,0.7c0.7,0.3,1.4,0.5,2.2,0.5c1.6,0,2.9-0.6,4-1.7
		c1.1-1.1,1.6-2.6,1.6-4.2c0-1.7-0.5-3.1-1.6-4.2C69.5,37.3,68.1,36.8,66.6,36.8z M67.9,42.7c0,0.6-0.2,1.2-0.7,1.6s-1,0.7-1.6,0.7
		s-1.2-0.2-1.6-0.7c-0.4-0.4-0.7-1-0.7-1.6c0-0.6,0.2-1.2,0.7-1.6c0.4-0.4,1-0.7,1.6-0.7s1.2,0.2,1.6,0.7
		C67.7,41.5,67.9,42,67.9,42.7z M83.8,37.5l-1,3.2c0,0.1-0.1,0.1-0.2,0.2c0,0-0.1,0-0.1,0c-0.1,0-0.1,0-0.1,0
		c-0.4-0.2-0.9-0.4-1.4-0.4c-0.6,0-1,0.2-1.3,0.6c-0.3,0.4-0.5,1-0.5,1.7v5.4c0,0.2-0.1,0.3-0.3,0.3h-3.6c-0.1,0-0.3-0.1-0.3-0.3
		V37.3c0-0.1,0.1-0.3,0.3-0.3h3.6c0.2,0,0.3,0.1,0.3,0.3v0.5c0.7-0.7,1.6-1.1,2.6-1.1c0.7,0,1.4,0.1,1.9,0.4
		C83.8,37.2,83.9,37.4,83.8,37.5z M97,37.3v10.8c0,0.2-0.1,0.3-0.3,0.3h-3.6c-0.2,0-0.3-0.1-0.3-0.3v-0.5c-0.8,0.7-1.8,1.1-3,1.1
		c-1.1,0-2.1-0.4-2.8-1.2c-0.7-0.8-1.1-1.8-1.1-3.1v-7.1c0-0.1,0.1-0.3,0.3-0.3h3.6c0.2,0,0.3,0.1,0.3,0.3v6.2c0,0.4,0.1,0.8,0.4,1
		c0.3,0.3,0.6,0.4,1,0.4s0.7-0.1,1-0.4c0.3-0.3,0.4-0.6,0.4-1v-6.2c0-0.1,0.1-0.3,0.3-0.3h3.6C96.9,37,97,37.1,97,37.3z M108.2,44.7
		c0,1.1-0.4,2-1.1,2.8c-0.8,0.7-1.8,1.1-3.2,1.1c-1.8,0-3.3-0.6-4.4-1.7c-0.1-0.1-0.1-0.2,0-0.4l1.7-2.2c0.1-0.1,0.1-0.1,0.2-0.1
		c0,0,0,0,0,0c0.1,0,0.2,0,0.2,0.1c0.5,0.6,1.1,1,1.7,1c0.2,0,0.4,0,0.6-0.1c0.1-0.1,0.2-0.2,0.2-0.4c0-0.2-0.1-0.4-0.2-0.5
		c-0.1-0.1-0.3-0.3-0.8-0.5c-1.9-0.8-2.9-2.1-2.9-3.7c0-1,0.4-1.8,1.1-2.4c0.7-0.6,1.7-0.9,2.8-0.9c1.4,0,2.6,0.4,3.6,1.3
		c0.1,0.1,0.1,0.3,0,0.4l-1.6,2c-0.1,0.1-0.1,0.1-0.2,0.1c0,0,0,0,0,0c-0.1,0-0.2,0-0.2-0.1c-0.3-0.3-0.6-0.4-0.9-0.4
		c-0.4,0-0.4,0.1-0.4,0.2c0,0.1,0,0.1,0.2,0.2c0.1,0.1,0.4,0.2,1,0.5C107.3,41.8,108.2,43.1,108.2,44.7z M120.9,37.9
		c0.7,0.8,1.1,1.8,1.1,3v7.1c0,0.2-0.1,0.3-0.3,0.3H118c-0.2,0-0.3-0.1-0.3-0.3v-6.2c0-0.4-0.1-0.8-0.4-1c-0.3-0.3-0.6-0.4-1-0.4
		c-0.4,0-0.7,0.1-1,0.4c-0.3,0.3-0.4,0.6-0.4,1v6.2c0,0.2-0.1,0.3-0.3,0.3h-3.6c-0.2,0-0.3-0.1-0.3-0.3V30.8c0-0.1,0.1-0.3,0.3-0.3
		h3.6c0.2,0,0.3,0.1,0.3,0.3v7c0.8-0.7,1.8-1.1,3-1.1C119.2,36.8,120.1,37.1,120.9,37.9z"/>
</g>
</svg>
