<?xml version="1.0" encoding="utf-8"?>
<!-- Generator: Adobe Illustrator 24.0.0, SVG Export Plug-In . SVG Version: 6.00 Build 0)  -->
<svg version="1.1" id="Layer_1" xmlns="http://www.w3.org/2000/svg" xmlns:xlink="http://www.w3.org/1999/xlink" x="0px" y="0px"
	 viewBox="0 0 150 150" style="enable-background:new 0 0 150 150;" xml:space="preserve">
<style type="text/css">
	.st0{fill:none;stroke:#201F23;stroke-width:2;stroke-miterlimit:10;stroke-dasharray:12,8;}
	.st1{fill:#FFE048;}
	.st2{fill:#FC2937;}
	.st3{fill:#08B785;}
</style>
<g>
	<g>
		<g>
			<line class="st0" x1="30.3" y1="49.9" x2="119.7" y2="49.9"/>
			<line class="st0" x1="44.7" y1="119.7" x2="44.7" y2="30.3"/>
			<line class="st0" x1="78" y1="119.7" x2="78" y2="30.3"/>
			<line class="st0" x1="108.1" y1="119.7" x2="108.1" y2="30.3"/>
			<line class="st0" x1="30.3" y1="84.8" x2="119.7" y2="84.8"/>
			<line class="st0" x1="30.3" y1="96.8" x2="119.7" y2="96.8"/>
		</g>
		<g>
			<g>
				<path class="st1" d="M84.7,54.1c-2,0-3.9,0.3-5.7,0.7c2,3.1,3.2,6.8,3.2,10.7c0,7.1-3.8,13.3-9.4,16.8c0.1,0.8,0.2,1.6,0.2,2.5
					c0,3.9-1.4,7.4-3.6,10.2c4.1,3.6,9.5,5.8,15.4,5.8c12.9,0,23.4-10.5,23.4-23.4C108.1,64.5,97.6,54.1,84.7,54.1z"/>
			</g>
			<g>
				<path class="st2" d="M67.8,80.1c-1.8-4.3-6.1-7.3-11.1-7.3c-2.5,0-4.9,0.8-6.8,2.1c2.8,3.8,7.4,6.2,12.4,6.2
					C64.3,81.1,66.1,80.8,67.8,80.1z"/>
				<path class="st2" d="M62.4,49.9c-8.6,0-15.6,7-15.6,15.6c0,2,0.4,4,1.1,5.7c2.5-1.7,5.6-2.6,8.8-2.6c6.6,0,12.2,3.9,14.8,9.5
					c3.9-2.8,6.5-7.4,6.5-12.6C78,56.9,71,49.9,62.4,49.9z"/>
			</g>
			<path class="st3" d="M56.7,72.8c-6.6,0-12,5.4-12,12c0,6.6,5.4,12,12,12s12-5.4,12-12C68.7,78.2,63.3,72.8,56.7,72.8z"/>
		</g>
	</g>
</g>
</svg>
