<?xml version="1.0" encoding="utf-8"?>
<!-- Generator: Adobe Illustrator 24.0.0, SVG Export Plug-In . SVG Version: 6.00 Build 0)  -->
<svg version="1.1" id="Layer_1" xmlns="http://www.w3.org/2000/svg" xmlns:xlink="http://www.w3.org/1999/xlink" x="0px" y="0px"
	 viewBox="0 0 150 150" style="enable-background:new 0 0 150 150;" xml:space="preserve">
<style type="text/css">
	.st0{fill:#201F23;}
	.st1{fill:#FFE048;}
	.st2{fill:#FC2937;}
	.st3{fill:#08B785;}
	.st4{fill-rule:evenodd;clip-rule:evenodd;fill:#FFE048;}
</style>
<g>
	<g>
		<path class="st0" d="M80.5,41.5c0,0,0-0.1,0-0.1c0-0.1,0-0.1-0.1-0.2c0,0,0,0,0-0.1c-0.9-3.1-2.2-5.9-2.5-11.5h0v0
			c0,0,0-0.1,0-0.1c0,0,0,0,0,0l0-0.7c0-0.4-0.6-0.8-1.4-0.8c-1.1,0-1.8,0-2.9,0c-0.8,0-1.4,0.4-1.4,0.8l0,0.7c0,0,0,0,0,0
			c0,0,0,0.1,0,0.1v0h0c-0.2,5.6-1.5,8.5-2.5,11.5c0,0,0,0,0,0.1c0,0.1,0,0.1-0.1,0.2c0,0,0,0.1,0,0.1c0,0,0,0.1,0,0.1
			c-0.2,1.8-0.2,2.8,0.3,4.6c0.2,0.7,0.6,1.2,0.8,1.2c3,0,6,0,8.9,0c0.2,0,0.6-0.5,0.8-1.2c0.5-1.8,0.4-2.8,0.3-4.6
			C80.5,41.5,80.5,41.5,80.5,41.5z"/>
		<path class="st1" d="M80.5,55.7c-1.3,0-2.6,0.2-3.8,0.5c1.3,2,2.1,4.5,2.1,7.1c0,4.7-2.5,8.8-6.2,11.1c0.1,0.5,0.1,1.1,0.1,1.6
			c0,2.6-0.9,4.9-2.4,6.7c2.7,2.4,6.3,3.9,10.2,3.9C89,86.7,96,79.7,96,71.2C96,62.6,89,55.7,80.5,55.7z M90.4,63.7
			c-1.5,1.8-5.4,2.4-7.2,2.5c0.9-0.8,2.1-1.3,2.6-2.4c0.7-1.7,1.4-3.7,3.6-3.4C91,60.5,91.5,62.3,90.4,63.7z"/>
		<g>
			<path class="st2" d="M69.3,73c-1.2-2.9-4-4.9-7.3-4.9c-1.7,0-3.2,0.5-4.5,1.4c1.9,2.5,4.9,4.1,8.2,4.1C67,73.6,68.2,73.4,69.3,73
				z"/>
			<path class="st2" d="M65.7,53c-5.7,0-10.3,4.6-10.3,10.3c0,1.3,0.3,2.6,0.7,3.8c1.7-1.1,3.7-1.8,5.9-1.8c4.3,0,8.1,2.6,9.8,6.3
				c2.6-1.9,4.3-4.9,4.3-8.4C76,57.6,71.4,53,65.7,53z"/>
		</g>
		<path class="st3" d="M62,68.1c-4.4,0-8,3.6-8,8c0,4.4,3.6,7.9,8,7.9c4.4,0,7.9-3.6,7.9-7.9C69.9,71.7,66.4,68.1,62,68.1z"/>
		<path class="st0" d="M108.8,41.5H41.2c-2.6,0-4.7,2-4.7,4.5v46.6c0,2.5,2.1,4.5,4.7,4.5h17.2v0.4c0,0.9,1,1.7,2.2,1.7h28.7
			c1.2,0,2.2-0.8,2.2-1.7v-0.4h17.2c2.6,0,4.7-2,4.7-4.5V46C113.5,43.5,111.4,41.5,108.8,41.5z M109.2,92.5c0,0.1-0.2,0.3-0.4,0.3
			H91.6c-0.1-0.8-1.1-1.5-2.2-1.5H60.6c-1.1,0-2.1,0.6-2.2,1.5H41.2c-0.2,0-0.4-0.2-0.4-0.3V46c0-0.1,0.2-0.3,0.4-0.3h67.6
			c0.2,0,0.4,0.2,0.4,0.3C109.2,46,109.2,92.5,109.2,92.5z"/>
		<path class="st0" d="M70.3,103l0,13.9c0,0.5,0.1,0.9,0.4,1.2c0.3,0.3,0.6,0.5,1,0.5h6.4c0.7,0,1.3-0.8,1.3-1.7l0-13.9H70.3z"/>
		<g>
			<path class="st0" d="M60.7,102.8h-6.1c-0.6,0-1.1,0.4-1.3,1.1l-4.6,15.9c-0.2,0.5-0.1,1.1,0.2,1.6c0.3,0.5,0.7,0.7,1.1,0.7h6.1
				c0.6,0,1.1-0.4,1.3-1.1l4.6-15.9c0.2-0.5,0.1-1.1-0.2-1.6C61.5,103.1,61.1,102.8,60.7,102.8z"/>
			<path class="st0" d="M101.3,119.8l-4.6-15.9c-0.2-0.7-0.7-1.1-1.3-1.1h-6.1c-0.4,0-0.9,0.3-1.1,0.7c-0.3,0.5-0.3,1-0.2,1.6
				l4.6,15.9c0.2,0.7,0.7,1.1,1.3,1.1h6.1c0.4,0,0.9-0.3,1.1-0.7C101.4,120.9,101.4,120.4,101.3,119.8z"/>
		</g>
		<path class="st4" d="M103.7,49.5c0,0.1,0.1,0.1,0.1,0.2c0,0,0.1,0.1,0.1,0.1c0.2,0.3,0.3,0.7,0,0.9l-8.1,8c0,0,0,0.1,0,0.1
			L93.4,60c-0.3-0.7-0.9-1.3-1.6-1.7l1.7-2.3c0,0,0.1,0,0.1,0l9.2-6.7C103.1,49.1,103.5,49.2,103.7,49.5z"/>
	</g>
</g>
</svg>
