<?xml version="1.0" encoding="utf-8"?>
<!-- Generator: Adobe Illustrator 24.0.0, SVG Export Plug-In . SVG Version: 6.00 Build 0)  -->
<svg version="1.1" id="Layer_1" xmlns="http://www.w3.org/2000/svg" xmlns:xlink="http://www.w3.org/1999/xlink" x="0px" y="0px"
	 viewBox="0 0 150 150" style="enable-background:new 0 0 150 150;" xml:space="preserve">
<style type="text/css">
	.st0{fill:#201F23;}
	.st1{fill:#FFE048;}
	.st2{fill:#FC2937;}
	.st3{fill:#08B785;}
</style>
<g>
	<g>
		<path class="st0" d="M104.4,41H35c-2.6,0-4.8,2.1-4.8,4.8v46.1c0,2.6,2.1,4.8,4.8,4.8h56.2v-9.9H35c-0.9,0-1.6-0.6-1.6-1.4V45.5
			c0-0.8,0.7-1.4,1.6-1.4h69.4c0.9,0,1.6,0.6,1.6,1.4v20.1h3.2V45.8C109.2,43.1,107,41,104.4,41z M69.7,89.7c1.1,0,2,0.9,2,2
			c0,1.1-0.9,2-2,2s-2-0.9-2-2C67.7,90.6,68.6,89.7,69.7,89.7z"/>
		<g>
			<g>
				<path class="st1" d="M109.4,84.4c-0.4,0-0.7,0.1-1.1,0.1c0.4,0.6,0.6,1.3,0.6,2.1c0,1.4-0.7,2.6-1.8,3.2c0,0.2,0,0.3,0,0.5
					c0,0.7-0.3,1.4-0.7,1.9c0.8,0.7,1.8,1.1,3,1.1c2.5,0,4.5-2,4.5-4.5S111.9,84.4,109.4,84.4z"/>
			</g>
			<g>
				<path class="st2" d="M106.2,89.4c-0.3-0.8-1.2-1.4-2.1-1.4c-0.5,0-0.9,0.1-1.3,0.4c0.5,0.7,1.4,1.2,2.4,1.2
					C105.5,89.6,105.9,89.5,106.2,89.4z"/>
				<path class="st2" d="M105.1,83.6c-1.7,0-3,1.3-3,3c0,0.4,0.1,0.8,0.2,1.1c0.5-0.3,1.1-0.5,1.7-0.5c1.3,0,2.3,0.8,2.8,1.8
					c0.8-0.5,1.2-1.4,1.2-2.4C108.1,85,106.8,83.6,105.1,83.6z"/>
			</g>
			<path class="st3" d="M104.1,88c-1.3,0-2.3,1-2.3,2.3c0,1.3,1,2.3,2.3,2.3c1.3,0,2.3-1,2.3-2.3C106.4,89,105.3,88,104.1,88z"/>
		</g>
		<g>
			<g>
				<path class="st1" d="M74.4,55.9c-1,0-1.9,0.1-2.8,0.4c1,1.5,1.5,3.3,1.5,5.2c0,3.5-1.8,6.5-4.6,8.2c0.1,0.4,0.1,0.8,0.1,1.2
					c0,1.9-0.7,3.6-1.8,5c2,1.8,4.6,2.8,7.5,2.8c6.3,0,11.4-5.1,11.4-11.4S80.7,55.9,74.4,55.9z"/>
			</g>
			<g>
				<path class="st2" d="M66.2,68.6c-0.9-2.1-3-3.6-5.4-3.6c-1.2,0-2.4,0.4-3.3,1c1.4,1.8,3.6,3,6.1,3C64.5,69,65.4,68.9,66.2,68.6z
					"/>
				<path class="st2" d="M63.5,53.9c-4.2,0-7.6,3.4-7.6,7.6c0,1,0.2,1.9,0.5,2.8c1.2-0.8,2.7-1.3,4.3-1.3c3.2,0,5.9,1.9,7.2,4.6
					c1.9-1.4,3.2-3.6,3.2-6.2C71.1,57.3,67.7,53.9,63.5,53.9z"/>
			</g>
			<path class="st3" d="M60.8,65c-3.2,0-5.8,2.6-5.8,5.8c0,3.2,2.6,5.8,5.8,5.8c3.2,0,5.8-2.6,5.8-5.8C66.6,67.6,64,65,60.8,65z"/>
		</g>
		<path class="st0" d="M82.7,106.1C82.7,106.1,82.7,106.1,82.7,106.1c-0.1-0.1-0.1-0.1-0.2-0.2c0,0,0,0,0,0
			c-2.2-1.5-5.3-2.9-5.9-5.6h0l0,0c0,0,0,0,0-0.1c0,0,0,0,0,0l0-0.3c0-0.2-1.5-0.4-3.4-0.4c-2.6,0-4.3,0-6.9,0
			c-1.9,0-3.4,0.2-3.4,0.4l0,0.3c0,0,0,0,0,0c0,0,0,0,0,0l0,0h0c-0.5,2.7-3.6,4.1-5.9,5.6c0,0,0,0,0,0c0,0-0.1,0.1-0.1,0.1
			c0,0,0,0,0,0.1c0,0,0,0,0,0c-0.4,0.9-0.5,1.3,0.6,2.2c0.4,0.3,1.3,0.6,1.8,0.6c7.1,0,14.1,0,21.2,0c0.5,0,1.4-0.3,1.8-0.6
			C83.2,107.5,83.1,107.1,82.7,106.1C82.7,106.2,82.7,106.2,82.7,106.1z"/>
		<path class="st0" d="M115.6,68.8h-15.5c-2.3,0-4.2,2.1-4.2,4.8v30.5c0,2.6,1.9,4.8,4.2,4.8h15.5c2.3,0,4.2-2.1,4.2-4.8V73.5
			C119.8,70.9,117.9,68.8,115.6,68.8z M105.5,70.1h4.7c0.2,0,0.4,0.2,0.4,0.4c0,0.2-0.2,0.4-0.4,0.4h-4.7c-0.2,0-0.4-0.2-0.4-0.4
			C105.1,70.3,105.3,70.1,105.5,70.1z M107.8,107.4c-0.7,0-1.2-0.5-1.2-1.2c0-0.7,0.5-1.2,1.2-1.2s1.2,0.5,1.2,1.2
			C109.1,106.9,108.5,107.4,107.8,107.4z M117,102.3c0,0.8-0.6,1.5-1.4,1.5h-15.5c-0.8,0-1.4-0.7-1.4-1.5V73.4
			c0-0.8,0.6-1.5,1.4-1.5h15.5c0.8,0,1.4,0.7,1.4,1.5V102.3z"/>
	</g>
</g>
</svg>
