<?xml version="1.0" encoding="utf-8"?>
<!-- Generator: Adobe Illustrator 24.0.0, SVG Export Plug-In . SVG Version: 6.00 Build 0)  -->
<svg version="1.1" id="Layer_1" xmlns="http://www.w3.org/2000/svg" xmlns:xlink="http://www.w3.org/1999/xlink" x="0px" y="0px"
	 viewBox="0 0 660 87.4" style="enable-background:new 0 0 660 87.4;" xml:space="preserve">
<style type="text/css">
	.st0{fill:none;stroke:#FC2937;stroke-miterlimit:10;}
	.st1{enable-background:new    ;}
	.st2{fill:none;stroke:#2DA971;}
	.st3{fill:none;stroke:#FFD731;}
</style>
<g id="Services_Outlines" transform="translate(-924.839 -615.937)">
	<g>
		<path class="st0" d="M955.5,638.9h5.3l9.9,22.7l8.5-23.1l10.8,2.2L972.9,679h-5.2l-9.5-23.2l-9.5,23.2h-5.2l-17.1-38.3l10.8-2.2
			l8.5,23.1L955.5,638.9z"/>
		<path class="st0" d="M1014.8,669.4c3.9,0,7-1.6,9.3-4.7l8.9,5.7c-4.4,6-10.5,9-18.2,9c-6.1,0-11.2-2-15.4-5.9s-6.2-8.8-6.2-14.6
			s2-10.6,6.1-14.5s9.1-5.9,14.9-5.9c5.7,0,10.6,2,14.7,5.9c4.1,4,6.2,8.8,6.2,14.6c0,1.2-0.1,2.2-0.2,3.1h-30.3
			c0.7,2.3,1.9,4.1,3.7,5.3C1010.2,668.8,1012.4,669.4,1014.8,669.4z M1004.9,654.4h19.4c-0.6-1.9-1.7-3.4-3.5-4.4
			c-1.8-1.1-3.9-1.6-6.3-1.6c-2.1,0-4.1,0.6-5.9,1.7C1006.9,651.1,1005.7,652.5,1004.9,654.4z"/>
		<path class="st0" d="M1043.7,678.4v-62.2h11v28.5c3.2-4,7.8-6.1,13.7-6.1c5.5,0,10.1,2,13.9,5.9s5.7,8.8,5.7,14.5
			c0,5.8-1.9,10.6-5.7,14.5c-3.8,3.9-8.4,5.9-13.9,5.9c-5.9,0-10.5-2-13.7-6.1v5.1L1043.7,678.4L1043.7,678.4z M1058.1,651.5
			c-2.1,1.9-3.2,4.4-3.2,7.5s1.1,5.6,3.2,7.5s4.7,2.9,7.8,2.9c3.1,0,5.7-1,7.8-2.9c2.1-1.9,3.2-4.4,3.2-7.5s-1.1-5.6-3.2-7.5
			s-4.7-2.9-7.8-2.9C1062.8,648.6,1060.2,649.6,1058.1,651.5z"/>
		<path class="st0" d="M1099.1,677.4c-1.3-1.4-2-3-2-4.9s0.7-3.5,2-4.9c1.4-1.4,3-2,4.9-2s3.5,0.7,4.9,2c1.4,1.4,2,3,2,4.9
			s-0.7,3.5-2,4.9c-1.4,1.4-3,2-4.9,2C1102.1,679.3,1100.4,678.7,1099.1,677.4z"/>
	</g>
	<g class="st1">
		<path class="st2" d="M1087.7,677.4v-61.5h10.8V644c3.2-4,7.7-6,13.5-6c5.4,0,10,1.9,13.7,5.8c3.7,3.9,5.6,8.7,5.6,14.3
			c0,5.7-1.9,10.5-5.6,14.4s-8.3,5.8-13.7,5.8c-5.9,0-10.4-2-13.5-6v5h-10.8V677.4z M1101.9,650.9c-2.1,1.9-3.1,4.3-3.1,7.4
			c0,3.1,1.1,5.5,3.2,7.4s4.7,2.8,7.7,2.8c3.1,0,5.6-0.9,7.7-2.8c2.1-1.9,3.2-4.4,3.2-7.4c0-3.1-1.1-5.5-3.2-7.4s-4.7-2.8-7.7-2.8
			C1106.6,648,1104,649,1101.9,650.9z"/>
		<path class="st2" d="M1167.3,639.5l-3,10c-1.7-1-3.6-1.5-5.6-1.5c-2.6,0-4.5,1-5.9,2.9s-2.1,4.5-2.1,7.7v18.9h-10.8v-38.4h10.8
			v4.4c2.6-3.6,6-5.4,10.2-5.4C1163.3,638.1,1165.5,638.5,1167.3,639.5z"/>
		<path class="st2" d="M1213.7,639.1v38.4h-10.8v-5c-3.2,4-7.7,6-13.5,6c-5.4,0-10-1.9-13.7-5.8c-3.7-3.9-5.6-8.7-5.6-14.4
			s1.9-10.5,5.6-14.3c3.7-3.9,8.3-5.8,13.7-5.8c5.8,0,10.4,2,13.5,6v-5h10.8V639.1z M1199.5,665.7c2.1-1.9,3.2-4.4,3.2-7.5
			s-1.1-5.5-3.2-7.4s-4.7-2.8-7.7-2.8c-3.1,0-5.6,0.9-7.7,2.8c-2.1,1.9-3.2,4.4-3.2,7.4c0,3.1,1.1,5.5,3.2,7.4s4.7,2.8,7.7,2.8
			C1194.8,668.5,1197.4,667.6,1199.5,665.7z"/>
		<path class="st2" d="M1260,677.4h-10.8v-22.6c0-2.2-0.6-3.9-1.9-5.3c-1.3-1.3-2.9-2-5-2c-2,0-3.7,0.7-5,2s-1.9,3.1-1.9,5.3v22.6
			h-10.8V639h10.8v4.1c2.9-3.4,6.6-5.1,11.2-5.1c3.8,0,6.9,1.3,9.5,3.9c2.6,2.6,3.9,6,3.9,10.3L1260,677.4L1260,677.4z"/>
		<path class="st2" d="M1311.9,615.9v61.5h-10.8v-5c-3.2,4-7.7,6-13.5,6c-5.4,0-10-1.9-13.7-5.8c-3.7-3.9-5.6-8.7-5.6-14.4
			s1.9-10.5,5.6-14.3c3.7-3.9,8.3-5.8,13.7-5.8c5.8,0,10.4,2,13.5,6V616h10.8V615.9z M1297.6,665.7c2.1-1.9,3.2-4.4,3.2-7.5
			s-1.1-5.5-3.2-7.4s-4.7-2.8-7.7-2.8c-3.1,0-5.6,0.9-7.7,2.8c-2.1,1.9-3.2,4.4-3.2,7.4c0,3.1,1.1,5.5,3.2,7.4s4.7,2.8,7.7,2.8
			C1293,668.5,1295.5,667.6,1297.6,665.7z"/>
		<path class="st2" d="M1325.2,676.4c-1.3-1.4-2-3-2-4.8c0-1.9,0.7-3.5,2-4.8s2.9-2,4.8-2s3.5,0.7,4.8,2s2,2.9,2,4.8
			c0,1.9-0.7,3.5-2,4.8s-2.9,2-4.8,2C1328.2,678.3,1326.5,677.7,1325.2,676.4z"/>
	</g>
	<g class="st1">
		<path class="st3" d="M1355.9,615.9v61.5h-10.8v-5c-3.2,4-7.7,6-13.5,6c-5.4,0-10-1.9-13.7-5.8c-3.7-3.9-5.6-8.7-5.6-14.4
			s1.9-10.5,5.6-14.3c3.7-3.9,8.3-5.8,13.7-5.8c5.8,0,10.4,2,13.5,6V616h10.8V615.9z M1341.6,665.7c2.1-1.9,3.2-4.4,3.2-7.5
			s-1.1-5.5-3.2-7.4s-4.7-2.8-7.7-2.8c-3.1,0-5.6,0.9-7.7,2.8c-2.1,1.9-3.2,4.4-3.2,7.4c0,3.1,1.1,5.5,3.2,7.4s4.7,2.8,7.7,2.8
			C1337,668.5,1339.6,667.6,1341.6,665.7z"/>
		<path class="st3" d="M1385.8,668.5c3.8,0,6.9-1.6,9.2-4.7l8.8,5.7c-4.4,6-10.4,8.9-18,8.9c-6,0-11.1-1.9-15.2-5.8
			c-4.1-3.9-6.2-8.7-6.2-14.4s2-10.5,6.1-14.3c4-3.9,9-5.8,14.8-5.8c5.6,0,10.5,2,14.5,5.9s6.1,8.7,6.2,14.5c0,1.2-0.1,2.2-0.2,3
			h-29.9c0.7,2.3,1.9,4,3.7,5.2C1381.2,667.9,1383.3,668.5,1385.8,668.5z M1376,653.7h19.2c-0.5-1.9-1.7-3.3-3.5-4.4
			s-3.8-1.6-6.2-1.6c-2.1,0-4,0.5-5.8,1.6C1377.9,650.4,1376.7,651.9,1376,653.7z"/>
		<path class="st3" d="M1424,669.6c1.4,0,2.4-0.3,3.2-1c0.8-0.7,1.2-1.6,1.2-2.7c0-1.3-0.4-2.3-1.1-3.1c-0.8-0.8-2.2-1.6-4.2-2.4
			c-6.5-2.7-9.7-6.6-9.7-11.6c0-3.1,1.1-5.7,3.4-7.7s5.2-3,8.9-3c4.5,0,8.3,1.7,11.3,5l-5.3,6.1c-1.3-1.6-2.7-2.4-4.4-2.4
			c-2,0-3,0.7-3,2.2c0,0.9,0.4,1.6,1.1,2.2c0.8,0.6,2.2,1.3,4.2,2.2c6.4,2.8,9.6,6.9,9.6,12.4c0,3.7-1.2,6.7-3.6,9.1
			c-2.4,2.4-5.8,3.6-10.3,3.6c-6,0-10.7-2.4-14.2-7.1l5.7-6.5C1419.1,668.1,1421.4,669.6,1424,669.6z"/>
		<path class="st3" d="M1458.2,629.1c-1.3,1.3-2.9,1.9-4.7,1.9s-3.4-0.6-4.7-1.9c-1.3-1.3-2-2.8-2-4.6s0.7-3.3,2-4.6
			s2.9-1.9,4.7-1.9s3.4,0.6,4.7,1.9c1.3,1.3,2,2.8,2,4.6C1460.1,626.2,1459.5,627.7,1458.2,629.1z M1458.9,639.1v38.4h-10.8v-38.4
			H1458.9z"/>
		<path class="st3" d="M1500.7,639.1h10.8v37.2c0,8.4-2,14.5-6.1,18.4c-4,3.9-9.5,5.9-16.4,5.9c-7.6,0-13.7-3-18.3-8.9l7.5-6.2
			c2.7,3.8,6.3,5.7,10.7,5.7c3.6,0,6.5-1.1,8.6-3.4c2.1-2.2,3.2-5.7,3.2-10.5v-4.8c-3.2,4-7.7,6-13.5,6c-5.4,0-10-1.9-13.7-5.8
			c-3.7-3.9-5.6-8.7-5.6-14.4s1.9-10.5,5.6-14.3c3.7-3.9,8.3-5.8,13.7-5.8c5.8,0,10.4,2,13.5,6L1500.7,639.1L1500.7,639.1z
			 M1497.3,665.7c2.1-1.9,3.2-4.4,3.2-7.5s-1.1-5.5-3.2-7.4s-4.7-2.8-7.7-2.8c-3.1,0-5.6,0.9-7.7,2.8c-2.1,1.9-3.2,4.4-3.2,7.4
			c0,3.1,1.1,5.5,3.2,7.4s4.7,2.8,7.7,2.8C1492.6,668.5,1495.2,667.6,1497.3,665.7z"/>
		<path class="st3" d="M1557.8,677.4H1547v-22.6c0-2.2-0.6-3.9-1.9-5.3c-1.3-1.3-2.9-2-5-2c-2,0-3.7,0.7-5,2s-1.9,3.1-1.9,5.3v22.6
			h-10.8V639h10.8v4.1c2.9-3.4,6.6-5.1,11.2-5.1c3.8,0,6.9,1.3,9.5,3.9c2.6,2.6,3.9,6,3.9,10.3L1557.8,677.4L1557.8,677.4z"/>
		<path class="st3" d="M1570.7,676.4c-1.3-1.4-2-3-2-4.8c0-1.9,0.7-3.5,2-4.8s2.9-2,4.8-2s3.5,0.7,4.8,2s2,2.9,2,4.8
			c0,1.9-0.7,3.5-2,4.8s-2.9,2-4.8,2S1572.1,677.7,1570.7,676.4z"/>
	</g>
</g>
</svg>
